<svg version="1.1" xmlns="http://www.w3.org/2000/svg" xmlns:xlink="http://www.w3.org/1999/xlink" width="256.20034" height="256.48942" viewBox="0,0,256.20034,256.48942"><g transform="translate(-111.89984,-51.75529)"><g data-paper-data="{&quot;isPaintingLayer&quot;:true}" stroke="none" stroke-width="1" stroke-linejoin="round" stroke-dasharray="" stroke-dashoffset="0" style="mix-blend-mode: normal"><path d="M164.4131,51.75529h151.17504c29.00118,0 52.51204,23.80242 52.51204,53.16297v150.1636c0,29.36063 -23.51086,53.16285 -52.51204,53.16285h-151.17503c-29.00221,0 -52.51327,-23.80226 -52.51327,-53.16285v-150.16357c0,-29.36062 23.5111,-53.16297 52.51327,-53.16297z" fill="#ffab19" fill-rule="evenodd" stroke-linecap="round" stroke-miterlimit="10"/><g stroke-linecap="butt" stroke-miterlimit="2"><path d="M260.31484,112.30691h0.00247c0.00618,0 0.00927,0.00309 0.01484,0.00309c0.48891,0.01484 0.96855,0.10013 1.43336,0.24724c6.03072,0.70339 10.61387,4.42368 13.09798,8.42954c2.7604,4.45026 4.11155,10.28134 2.59908,16.27683c0.2528,-1.00069 0.04697,-0.212 0,0.1675c-0.05006,0.3795 -0.11497,0.93332 -0.18543,1.5953c-0.14463,1.32148 -0.31213,3.09355 -0.45059,4.95648c-0.28556,3.83217 -0.60326,8.58282 -1.09773,13.31556c-0.49138,4.71233 -1.11565,9.41849 -2.33392,13.73339c-0.03585,0.13227 -0.08839,0.18234 -0.12671,0.30904c1.13914,0.70339 2.41365,1.51557 3.86122,2.92852c3.02617,2.9551 4.51516,6.84599 5.28036,10.9254c0.73615,3.92673 1.05694,8.61497 1.30417,15.54934v0.03276l0.00309,0.09395c0.00247,0.04697 0.00247,0.09704 0.00247,0.1471v0.09457c0,11.24928 -5.89227,20.54105 -13.34151,26.51615c-7.35839,5.90401 -16.38871,9.20957 -25.32446,9.33319c-5.23277,0.07046 -9.43579,-0.59213 -13.1771,-1.47168c-0.17678,1.17685 -0.40299,2.43096 -0.94754,3.81425c-0.71266,1.81595 -2.00757,4.03799 -4.33838,5.79832h-0.00309c-2.47546,1.86911 -5.17404,2.56941 -7.7997,2.5929h-0.00309c-5.55418,0.04141 -10.1398,-2.09843 -13.53003,-4.33221c-1.73066,-1.14223 -3.39703,-2.49338 -4.85635,-4.17088c-4.19128,-4.82112 -3.76479,-10.47233 -3.90016,-14.35704c-0.13845,-3.19677 -0.26516,-7.35282 -0.20336,-11.84388c0.12362,-8.80348 0.15329,-19.14663 5.23339,-27.86173c0.3826,-0.65889 0.34737,-0.55319 0.58595,-0.92961c-0.70647,-4.53556 -1.03036,-11.69368 0.57112,-29.86867l0.00247,-0.03832c0.00309,-0.0204 0.00309,-0.02349 0.00618,-0.04388l0.00309,-0.02411c0.00865,-0.12362 0.01731,-0.24415 0.03524,-0.36468l0.00865,-0.04388c0,-0.01236 0.00309,-0.02411 0.00618,-0.03585l0.00247,-0.02905c1.36598,-10.41918 4.1474,-19.22266 9.32763,-26.02476c5.34464,-7.02276 13.6246,-11.25793 22.49546,-10.96062c5.87497,0.19718 10.01618,2.23069 13.31556,4.32912c0.42958,-0.9772 0.57112,-1.66267 1.38329,-2.83148c2.48411,-3.58185 5.77483,-5.56283 10.48408,-5.94543c0.18543,-0.01422 0.37394,-0.01731 0.56184,-0.01175z" fill="#f8a839" fill-rule="nonzero"/><path d="M260.64737,91.80109v0.00309l0.54701,0.01175l0.8746,0.05563l0.87089,0.09457l0.86842,0.13227l-0.87398,-0.15267l-0.12053,-0.01484l-0.90674,-0.07664l0.69474,0.03524l0.33253,0.05624l0.77385,0.09395l0.88016,0.13845l0.87398,0.17059l0.04697,0.00865l0.51549,0.0649l0.25898,0.07973l0.27629,0.04697l0.60079,0.11435l0.59461,0.12362l0.58842,0.13289l0.58286,0.14092l0.57977,0.1471l0.57421,0.15947l0.56803,0.1675l0.56493,0.17368l0.55937,0.18234l0.55319,0.19161l0.54453,0.19718l0.54144,0.20274l0.53897,0.212l0.52971,0.22066l0.52662,0.22684l0.51487,0.2324l0.5124,0.23858l0.50313,0.24724l0.50375,0.25033l0.49138,0.25898l0.48829,0.26455l0.48273,0.26825l0.47407,0.27629l0.46789,0.28l0.46233,0.28494l0.45615,0.29174l0.44998,0.29421l0.44194,0.30039l0.43823,0.30286l0.42958,0.31213l0.4271,0.31213l0.41474,0.3177l0.41536,0.32388l0.40609,0.32635l0.3999,0.33006l0.39187,0.32944l0.38816,0.33872l0.3826,0.34428l0.37394,0.34428l0.37086,0.34428l0.3653,0.35355l0.35602,0.35602l0.35293,0.35602l0.34428,0.36221l0.34181,0.36468l0.33562,0.36777l0.32944,0.37086l0.32388,0.37394l0.31461,0.37703l0.31213,0.3795l0.30904,0.3826l0.30039,0.38569l0.29421,0.38816l0.29112,0.39187l0.28556,0.39434l0.27691,0.39743l0.27382,0.3999l0.27073,0.40361l0.26207,0.40918l0.2528,0.3999l0.25651,0.41536l0.24724,0.41783l0.24106,0.41783l0.23858,0.41783l0.23549,0.42401l0.45306,0.85915l0.21756,0.43267l0.21509,0.43885l0.212,0.43823l0.20583,0.44503l0.20027,0.44998l0.19718,0.45059l0.19161,0.44998l0.18543,0.45615l0.18234,0.46542l0.17678,0.46171l0.17307,0.46542l0.16503,0.47098l0.16194,0.47346l0.15576,0.47716l0.15019,0.47964l0.1471,0.48273l0.13845,0.48582l0.13536,0.48829l0.1298,0.49138l0.12362,0.49447l0.11744,0.50066l0.11188,0.49756l0.10631,0.50313l0.10013,0.50931l0.09395,0.50869l0.08839,0.5124l0.08221,0.51487l0.07664,0.51549l0.07046,0.52105l0.06181,0.52353l0.05624,0.52105l0.05006,0.52971l0.04388,0.52971l0.03524,0.5328l0.03276,0.53589l0.0204,0.53589l0.01731,0.53527l0.00927,0.53897l0.00309,0.54701l-0.00618,0.54206l-0.01175,0.54453l-0.0204,0.5501l-0.02658,0.54453l-0.03524,0.5501l-0.04141,0.55381l-0.05006,0.5501l-0.05872,0.55319l-0.0649,0.55628l-0.07355,0.55381l-0.07973,0.55628l-0.08777,0.55628l-0.09766,0.55628l-0.10261,0.55628l-0.10631,0.52662l-0.03214,0.26516l-0.04141,0.3795l-0.04388,0.42649l-0.04697,0.47098l-0.05006,0.50931l-0.05006,0.53589l-0.05006,0.56184l-0.05006,0.5773l-0.04697,0.59152l-0.04759,0.61501l-0.22066,3.00517l-0.12362,1.65401l-0.13227,1.73375l-0.14401,1.78937l-0.07973,0.93579l-0.08221,0.93889l-0.0853,0.95062l-0.09148,0.95989l-0.09395,0.97102l-0.10013,0.97164l-0.10322,0.97102l-0.10879,0.9772l-0.11497,0.99204l-0.12362,1.00935l-0.12671,0.98338l0.00927,0.00865l0.24971,0.35293l0.24476,0.35355l0.24106,0.35602l0.26516,0.40609l0.42339,0.66507l0.43019,0.71513l0.41165,0.71575l0.39187,0.71822l0.37086,0.71204l0.34984,0.71204l0.33253,0.71266l0.31523,0.70647l0.2973,0.70339l0.28247,0.69721l0.26207,0.69474l0.25033,0.68609l0.2324,0.68238l0.22066,0.67743l0.20583,0.67063l0.19161,0.66259l0.18234,0.65641l0.16812,0.65023l0.15885,0.64158l0.1471,0.63601l0.13536,0.62674l0.12918,0.62118l0.11497,0.60017l0.10322,0.55319l0.09395,0.54206l0.08839,0.54392l0.0853,0.54206l0.08221,0.54453l0.07973,0.54453l0.07355,0.54144l0.13536,1.09464l0.0649,0.54763l0.05872,0.55319l0.05624,0.55072l0.05563,0.55628l0.10013,1.11812l0.05006,0.58595l0.08221,1.11812l0.07973,1.15707l0.07355,1.18303l0.0649,1.20404l0.05872,1.23309l0.05563,1.26524l0.05315,1.29799l0.03214,0.87151l0.01175,0.13536l0.01793,0.73615l0.00865,0.42339v0.35046l-0.00556,0.77695l-0.02102,0.85977l-0.03524,0.85297l-0.05006,0.85112l-0.06181,0.84741l-0.07602,0.84184l-0.08839,0.83875l-0.10322,0.83319l-0.11497,0.82701l-0.12609,0.82392l-0.14154,0.81835l-0.15329,0.81217l-0.16441,0.80661l-0.17678,0.80043l-0.19161,0.79486l-0.19965,0.78868l-0.212,0.78312l-0.22375,0.77695l-0.2324,0.76829l-0.24476,0.76211l-0.25589,0.75655l-0.26455,0.74789l-0.27691,0.74171l-0.28556,0.73553l-0.29421,0.72687l-0.30595,0.71822l-0.31213,0.71513l-0.32388,0.70339l-0.32944,0.70092l-0.34181,0.68856l-0.34737,0.68299l-0.35602,0.67372l-0.36468,0.66816l-0.37394,0.6595l-0.3795,0.65332l-0.38569,0.64467l-0.39434,0.6354l-0.40361,0.62983l-0.40609,0.62118l-0.41474,0.61253l-0.42401,0.60635l-0.42649,0.59708l-0.43267,0.59152l-0.44194,0.58286l-0.44441,0.57421l-0.44998,0.57112l-0.45924,0.55875l-0.46233,0.55072l-0.4648,0.54453l-0.47407,0.53836l-0.47655,0.52971l-0.48582,0.52105l-0.48582,0.51549l-0.49138,0.50622l-0.49756,0.50004l-0.50004,0.49138l-0.50622,0.48582l-0.50931,0.47716l-0.51487,0.47036l-0.51796,0.46233l-0.52105,0.45306l-0.52724,0.45059l-0.52971,0.43885l-0.52971,0.42958l-0.51487,0.40918l-0.5124,0.3999l-0.51487,0.39187l-0.52105,0.38816l-0.52415,0.3826l-0.52662,0.37394l-0.52971,0.37086l-0.5328,0.36468l-0.53589,0.35911l-0.54144,0.35355l-0.54144,0.34737l-0.54763,0.34428l-0.54763,0.33562l-0.5501,0.32944l-0.55628,0.32388l-0.55628,0.3177l-0.55937,0.31523l-0.56493,0.30595l-0.56493,0.30039l-0.56803,0.2973l-0.57112,0.28803l-0.57421,0.28247l-0.57668,0.28l-0.57668,0.27073l-0.58286,0.26455l-0.58595,0.2596l-0.58595,0.2528l-0.58842,0.25033l-0.59152,0.24106l-0.59152,0.23549l-0.59461,0.22993l-0.60079,0.22375l-0.59708,0.21447l-0.60326,0.212l-0.60388,0.20583l-0.60635,0.19718l-0.60882,0.1947l-0.60944,0.18543l-0.61192,0.17925l-0.61253,0.17368l-0.61809,0.16812l-0.61809,0.15885l-0.61809,0.15576l-0.62118,0.1471l-0.62365,0.14154l-0.62427,0.13536l-0.62674,0.12918l-0.62674,0.12115l-0.62983,0.11744l-0.63292,0.10879l-0.62983,0.10322l-0.63292,0.09395l-0.63601,0.08839l-0.63849,0.08221l-0.63849,0.07664l-0.63601,0.06799l-0.64158,0.06181l-0.64158,0.05315l-0.63849,0.04944l-0.64467,0.04141l-0.64467,0.03276l-0.64467,0.02596l-0.64776,0.02102l-0.6323,0.01175l-0.67743,0.00556h-0.65641l-0.65023,-0.00556l-0.34428,0.37086l-0.45615,0.47098l-0.47098,0.46789l-0.48582,0.46171l-0.50313,0.45924l-0.51487,0.45368l-0.5328,0.44688l-0.54453,0.44194l-0.38569,0.2973l-0.37703,0.27382l0.01484,-0.00618l-0.40918,0.30286l-0.59708,0.42092l-0.60388,0.4067l-0.60882,0.39125l-0.61809,0.37641l-0.62118,0.3653l-0.62983,0.34737l-0.63292,0.33253l-0.6354,0.3177l-0.6422,0.30348l-0.64405,0.28556l-0.64467,0.27073l-0.64776,0.25589l-0.64714,0.24106l-0.64776,0.22684l-0.64776,0.20891l-0.64714,0.19718l-0.64467,0.17987l-0.64467,0.1675l-0.64158,0.15329l-0.63601,0.13845l-0.6354,0.12362l-0.62983,0.11188l-0.62736,0.09951l-0.62056,0.08592l-0.61562,0.07355l-0.61192,0.06428l-0.60326,0.05006l-0.5977,0.04141l-0.5977,0.02967l-0.58533,0.01731l-0.58286,0.01175h-0.16503h-0.36777l-0.50622,-0.00556l-0.50313,-0.01175l-0.50375,-0.01793l-0.50004,-0.02349l-0.49756,-0.02967l-0.49138,-0.03524l-0.49138,-0.04079l-0.48891,-0.0445l-0.47964,-0.05315l-0.48273,-0.05563l-0.47655,-0.06181l-0.47407,-0.06799l-0.47098,-0.07046l-0.46233,-0.07664l-0.46171,-0.08221l-0.45924,-0.0853l-0.45306,-0.09148l-0.45059,-0.09395l-0.4475,-0.09704l-0.44132,-0.10322l-0.43576,-0.1057l-0.43267,-0.11188l-0.43267,-0.11497l-0.42401,-0.11806l-0.42092,-0.12053l-0.41474,-0.12362l-0.41474,-0.12671l-0.4067,-0.13227l-0.44998,-0.1471l-0.74789,-0.25898l-0.77385,-0.28556l-0.75964,-0.2973l-0.74171,-0.30286l-0.72069,-0.30904l-0.70647,-0.31832l-0.68856,-0.32326l-0.67125,-0.32697l-0.65332,-0.33253l-0.63601,-0.33562l-0.62118,-0.33872l-0.60017,-0.3381l-0.58595,-0.34181l-0.5705,-0.34119l-0.55381,-0.34119l-0.53527,-0.33872l-0.52724,-0.34428l-0.54144,-0.36221l-0.5501,-0.3795l-0.55628,-0.39434l-0.56246,-0.40918l-0.56493,-0.4271l-0.56803,-0.44132l-0.57112,-0.45924l-0.57421,-0.47655l-0.57359,-0.49447l-0.57421,-0.5124l-0.57359,-0.5328l-0.57112,-0.5501l-0.57112,-0.56803l-0.56803,-0.58842l-0.56246,-0.60944l-0.5501,-0.62118l-0.45924,-0.53836l-0.44441,-0.54206l-0.42958,-0.54701l-0.41783,-0.55072l-0.40361,-0.55937l-0.39125,-0.56184l-0.37394,-0.56246l-0.36468,-0.56803l-0.34737,-0.5705l-0.33872,-0.57421l-0.32079,-0.57421l-0.30595,-0.57359l-0.29421,-0.57421l-0.28247,-0.57359l-0.26516,-0.57112l-0.25589,-0.57112l-0.24167,-0.57112l-0.22622,-0.56184l-0.21818,-0.56246l-0.20274,-0.55628l-0.19161,-0.55319l-0.17925,-0.54763l-0.17121,-0.54144l-0.15885,-0.53836l-0.1471,-0.52971l-0.13845,-0.52415l-0.12609,-0.51487l-0.12115,-0.5124l-0.10879,-0.49756l-0.10013,-0.49756l-0.09395,-0.4852l-0.0853,-0.47716l-0.07973,-0.46789l-0.07046,-0.46171l-0.06799,-0.45059l-0.05872,-0.44132l-0.05315,-0.43267l-0.05253,-0.46789l-0.07664,-0.76829l-0.0649,-0.77447l-0.05006,-0.73244l-0.03832,-0.69165l-0.02658,-0.64776l-0.0204,-0.60017l-0.01484,-0.56864l-0.01731,-0.90612l-0.01484,-0.75655l-0.00618,-0.25589l-0.00556,-0.18296l-0.05006,-1.17685l-0.05006,-1.41914l-0.02349,-0.76767l-0.02349,-0.77447l-0.02102,-0.79424l-0.01731,-0.81279l-0.01484,-0.83257l-0.01484,-0.85112l-0.00865,-0.86533l-0.00618,-0.88263l-0.00247,-0.90056l0.00247,-0.9123l0.00618,-0.92714l0.00865,-0.9154l0.02349,-1.71026l0.01484,-0.88881l0.01484,-0.9154l0.0204,-0.94507l0.02658,-0.97411l0.03276,-0.9976l0.03771,-1.02418l0.05006,-1.05075l0.05933,-1.04828l0.03524,-0.5705l0.03524,-0.55072l0.04141,-0.55937l0.04388,-0.56493l0.05006,-0.56803l0.05006,-0.57421l0.05872,-0.58224l0.05872,-0.58286l0.06799,-0.59152l0.07046,-0.5977l0.07664,-0.60326l0.07973,-0.60635l0.08777,-0.61253l0.09148,-0.61809l0.10013,-0.62056l0.1057,-0.62736l0.11188,-0.63292l0.11806,-0.63849l0.12671,-0.64158l0.13536,-0.64467l0.14092,-0.65023l0.1471,-0.65332l0.15885,-0.6595l0.16812,-0.66198l0.17678,-0.66569l0.18234,-0.67063l0.19408,-0.67434l0.20583,-0.67681l0.21509,-0.6799l0.22375,-0.68299l0.23549,-0.68547l0.24724,-0.68918l0.25589,-0.68856l0.26825,-0.69165l0.28247,-0.69474l0.29112,-0.69474l0.12671,-0.28803l-0.01175,-0.22993l-0.03524,-0.8678l-0.02658,-0.895l-0.0204,-0.91849l-0.01236,-0.94754l-0.00556,-0.97411l0.00309,-1.00687l0.01175,-1.03592l0.01731,-1.07424l0.02658,-1.10701l0.03524,-1.1447l0.0445,-1.18612l0.05253,-1.22444l0.06181,-1.27142l0.06799,-1.31283l0.07973,-1.36289l0.09086,-1.40987l0.09704,-1.45993l0.10941,-1.51247l0.11744,-1.56872l0.1298,-1.62187l0.13783,-1.6806l0.1298,-1.47168l0.01731,-0.29421l0.02967,-0.26207l0.0204,-0.25898l0.12362,-1.03036l0.05006,-0.29421l0.00309,-0.03214l-0.01175,0.07046l0.02658,-0.19408l0.08221,-0.58595l0.08282,-0.58595l0.08777,-0.58224l0.08839,-0.58286l0.09457,-0.58286l0.09395,-0.58286l0.10013,-0.57977l0.10322,-0.58286l0.1057,-0.57977l0.10879,-0.57977l0.11188,-0.5773l0.11497,-0.57977l0.12053,-0.57977l0.12362,-0.57668l0.12671,-0.57668l0.12918,-0.57421l0.13289,-0.57668l0.13845,-0.57421l0.14092,-0.57359l0.1471,-0.57421l0.15019,-0.57421l0.15329,-0.5705l0.15885,-0.57421l0.16194,-0.56803l0.16441,-0.57421l0.17121,-0.56803l0.17616,-0.56803l0.17987,-0.5705l0.18543,-0.56555l0.18852,-0.56803l0.19408,-0.56493l0.20027,-0.56493l0.20274,-0.56555l0.20891,-0.56184l0.21509,-0.56246l0.21756,-0.55875l0.22684,-0.56246l0.22931,-0.55937l0.23302,-0.55628l0.24106,-0.55937l0.24724,-0.55319l0.25033,-0.55628l0.25589,-0.5501l0.26516,-0.55319l0.26764,-0.54763l0.27382,-0.55072l0.28247,-0.54453l0.28556,-0.54453l0.29112,-0.54144l0.30039,-0.54144l0.30348,-0.54144l0.31152,-0.53589l0.31832,-0.5328l0.32326,-0.5328l0.33006,-0.52971l0.33562,-0.52662l0.34119,-0.52724l0.35046,-0.52044l0.35293,-0.51796l0.36221,-0.51858l0.36777,-0.51178l0.37703,-0.50931l0.38816,-0.51796l0.42401,-0.54763l0.43823,-0.55319l0.44441,-0.54453l0.45615,-0.53589l0.45924,-0.5328l0.46789,-0.52353l0.47716,-0.51796l0.48273,-0.50931l0.48829,-0.50066l0.49447,-0.49695l0.50622,-0.48891l0.50931,-0.47964l0.51549,-0.47407l0.52353,-0.4648l0.52971,-0.45924l0.53589,-0.44998l0.54144,-0.44194l0.55072,-0.43576l0.55628,-0.42649l0.55875,-0.41783l0.56803,-0.41227l0.5773,-0.40299l0.57668,-0.39434l0.58595,-0.38569l0.59152,-0.3795l0.5977,-0.36839l0.60017,-0.36159l0.60944,-0.35046l0.61501,-0.34428l0.62118,-0.33562l0.62365,-0.32697l0.62983,-0.31461l0.63601,-0.30904l0.63849,-0.30039l0.64776,-0.28865l0.64714,-0.27938l0.65641,-0.27073l0.6595,-0.25898l0.66507,-0.25342l0.66816,-0.24106l0.67434,-0.2324l0.6799,-0.22066l0.68238,-0.212l0.68609,-0.20336l0.68856,-0.19099l0.69474,-0.18296l0.69783,-0.17059l0.7003,-0.15885l0.70647,-0.15019l0.70895,-0.14092l0.71266,-0.12671l0.71513,-0.11806l0.71822,-0.1057l0.71822,-0.09704l0.72378,-0.0853l0.72687,-0.07355l0.72996,-0.06181l0.72996,-0.05006l0.73306,-0.03832l0.73306,-0.02967l0.73862,-0.01484l0.73553,-0.00556l0.74171,0.00865l0.70957,0.01793l0.5124,0.01731l0.47964,0.02349l0.47655,0.02967l0.47407,0.03214l0.47098,0.03832l0.47098,0.04141l0.46789,0.04697l0.46171,0.05006l0.46233,0.05624l0.46233,0.06181l0.45615,0.06181l0.45306,0.07046l0.45059,0.07355l0.44688,0.07664l0.4475,0.08221l0.03524,0.00618l0.33872,-0.212l0.42649,-0.25898l0.43267,-0.25342l0.43576,-0.24724l0.43576,-0.23549l0.44132,-0.2324l0.44441,-0.22684l0.4475,-0.21756l0.45306,-0.212l0.45368,-0.20274l0.45615,-0.19718l0.45924,-0.19161l0.45615,-0.18234l0.45924,-0.17368l0.4648,-0.17059l0.4648,-0.15947l0.46233,-0.15576l0.46233,-0.14401l0.4648,-0.14154l0.46789,-0.13227l0.46542,-0.12671l0.4648,-0.11744l0.4648,-0.11188l0.46542,-0.10631l0.4648,-0.10013l0.46233,-0.09086l0.45924,-0.0853l0.4648,-0.07973l0.45924,-0.07355l0.45615,-0.06737l0.46233,-0.06181l0.45615,-0.05624l0.45306,-0.05006l0.45615,-0.04697l0.58842,-0.05006l0.68299,-0.04141l0.70092,-0.02349l0.65332,-0.00556zM260.03484,112.30443l-0.14092,0.00556l-0.13845,0.00865l-0.22066,0.01793l-0.21818,0.02349l-0.21447,0.02349l-0.212,0.02658l-0.212,0.02658l-0.20891,0.03214l-0.20891,0.03276l-0.20583,0.03524l-0.20336,0.03832l-0.20027,0.04079l-0.20027,0.04141l-0.19965,0.04388l-0.1947,0.05006l-0.19408,0.04759l-0.19161,0.05253l-0.19099,0.05315l-0.18852,0.05872l-0.18543,0.05933l-0.18543,0.05872l-0.18234,0.0649l-0.18234,0.06428l-0.17987,0.07108l-0.17678,0.07046l-0.17616,0.07046l-0.17368,0.07664l-0.17059,0.07664l-0.17121,0.08221l-0.17059,0.08221l-0.16441,0.08282l-0.16812,0.08839l-0.16194,0.08777l-0.16441,0.09148l-0.15947,0.09395l-0.15885,0.09766l-0.15885,0.10013l-0.15576,0.09951l-0.15329,0.10322l-0.15267,0.10631l-0.15019,0.10879l-0.15019,0.10879l-0.1471,0.11497l-0.1471,0.11435l-0.14463,0.11806l-0.14401,0.11744l-0.14401,0.12362l-0.13845,0.12362l-0.14154,0.12671l-0.13845,0.1298l-0.13536,0.13227l-0.13536,0.13227l-0.13227,0.13536l-0.13227,0.14154l-0.13289,0.13845l-0.12918,0.14401l-0.12671,0.1471l-0.12671,0.1471l-0.12609,0.15019l-0.12362,0.15329l-0.12362,0.15267l-0.12362,0.15885l-0.12115,0.15885l-0.11744,0.16194l-0.11806,0.16503l-0.11744,0.1675l-0.14401,0.212l-0.1298,0.20644l-0.11744,0.19408l-0.10631,0.18543l-0.09704,0.17925l-0.0853,0.17368l-0.07973,0.17121l-0.07602,0.1675l-0.06799,0.16194l-0.06737,0.16503l-0.12671,0.32635l-0.13536,0.33562l-0.07108,0.17368l-0.07912,0.17925l-0.31213,-0.19408l-0.31461,-0.19718l-0.32388,-0.19408l-0.32697,-0.19408l-0.33562,-0.19161l-0.3381,-0.18852l-0.34428,-0.18852l-0.35046,-0.18543l-0.35602,-0.18234l-0.3653,-0.17616l-0.37086,-0.17678l-0.37641,-0.17059l-0.3826,-0.16503l-0.39187,-0.16503l-0.39681,-0.15576l-0.4067,-0.15329l-0.41165,-0.14401l-0.42092,-0.14154l-0.42958,-0.13536l-0.43576,-0.12609l-0.22066,-0.06181l-0.22375,-0.05933l-0.22684,-0.05872l-0.22684,-0.05563l-0.22931,-0.05315l-0.2324,-0.05315l-0.2324,-0.05006l-0.23858,-0.04697l-0.23858,-0.04697l-0.23858,-0.0445l-0.24415,-0.04079l-0.24415,-0.03832l-0.24724,-0.03832l-0.25033,-0.03524l-0.2528,-0.03276l-0.25342,-0.03214l-0.25589,-0.02658l-0.26207,-0.02658l-0.25898,-0.02349l-0.26516,-0.0204l-0.26764,-0.01793l-0.26764,-0.01731l-0.27073,-0.01175l-0.27691,-0.01175l-0.41474,-0.00927l-0.41227,-0.00556l-0.41474,0.00309l-0.41227,0.00865l-0.41227,0.01484l-0.40918,0.02349l-0.40918,0.02905l-0.40918,0.03276l-0.40609,0.04079l-0.40609,0.04759l-0.40299,0.05563l-0.40052,0.05872l-0.40299,0.0649l-0.39743,0.07355l-0.39743,0.07664l-0.39743,0.0853l-0.39434,0.09148l-0.39125,0.09395l-0.39187,0.10322l-0.38816,0.10879l-0.38569,0.11188l-0.38569,0.12053l-0.3826,0.12671l-0.3826,0.12918l-0.37641,0.13536l-0.37703,0.14463l-0.37394,0.1471l-0.37086,0.15329l-0.37086,0.15885l-0.36777,0.16441l-0.36221,0.17121l-0.36159,0.17616l-0.36221,0.17987l-0.35602,0.18543l-0.35355,0.19099l-0.34984,0.19718l-0.35046,0.20336l-0.34428,0.20583l-0.34428,0.212l-0.33872,0.21756l-0.3381,0.22127l-0.33315,0.22622l-0.32944,0.2324l-0.32944,0.23858l-0.32388,0.24167l-0.32079,0.24724l-0.3177,0.24971l-0.31213,0.25651l-0.31213,0.26145l-0.30595,0.26516l-0.30595,0.27073l-0.30039,0.27691l-0.29421,0.27938l-0.29421,0.28247l-0.28865,0.28865l-0.28556,0.29421l-0.27938,0.2973l-0.28,0.30039l-0.27073,0.30595l-0.27073,0.31213l-0.26516,0.31461l-0.26145,0.31832l-0.25651,0.32326l-0.2528,0.32697l-0.24167,0.3177l-0.23796,0.32388l-0.23302,0.32697l-0.22931,0.32944l-0.22931,0.33253l-0.22375,0.33253l-0.22066,0.33872l-0.21509,0.34119l-0.21509,0.34428l-0.20891,0.34428l-0.20891,0.35046l-0.20274,0.35355l-0.20027,0.35293l-0.19718,0.35911l-0.1947,0.35911l-0.19099,0.36221l-0.18852,0.36777l-0.18543,0.36777l-0.18234,0.37086l-0.17678,0.37703l-0.17678,0.37641l-0.17059,0.3795l-0.17059,0.3826l-0.1675,0.38569l-0.16194,0.38569l-0.16194,0.39125l-0.15638,0.39496l-0.15576,0.39681l-0.15019,0.39743l-0.15019,0.40052l-0.1471,0.40609l-0.14092,0.40609l-0.14154,0.40918l-0.13845,0.41227l-0.13536,0.41474l-0.13227,0.41783l-0.1298,0.42092l-0.12609,0.42092l-0.12362,0.4271l-0.12115,0.42649l-0.12053,0.42958l-0.11497,0.43267l-0.11435,0.43576l-0.11188,0.43885l-0.10879,0.44132l-0.10631,0.44132l-0.10261,0.4475l-0.10013,0.4475l-0.10013,0.44998l-0.09704,0.45368l-0.09457,0.45615l-0.09086,0.45924l-0.08839,0.45924l-0.08839,0.4648l-0.0853,0.4648l-0.08282,0.46851l-0.07912,0.47036l-0.07664,0.47098l-0.07664,0.47716l-0.07355,0.47655l-0.07046,0.47964l-0.07046,0.48273l-0.06799,0.48582l-0.0649,0.48582l-0.00247,0.02905l-0.00618,0.03585l-0.00865,0.04388l-0.02102,0.18234l-0.01422,0.18234l-0.00309,0.02411l-0.00618,0.04388l-0.00247,0.03832l-0.14463,1.67194l-0.13227,1.60951l-0.12362,1.54523l-0.11188,1.4896l-0.10322,1.42718l-0.09086,1.37154l-0.0853,1.31901l-0.07355,1.26276l-0.06181,1.2096l-0.05624,1.15954l-0.05006,1.11257l-0.03832,1.0625l-0.02905,1.01862l-0.02349,0.97102l-0.01793,0.93023l-0.00865,0.88572l-0.00309,0.8505l0.00309,0.8097l0.01175,0.77138l0.01484,0.73862l0.02349,0.70339l0.02596,0.67125l0.03276,0.64158l0.03832,0.60882l0.04079,0.58595l0.0445,0.55628l0.05006,0.5328l0.05315,0.51178l0.05872,0.48891l0.05872,0.46789l0.06181,0.45059l0.0649,0.43267l-0.07664,0.12053l-0.06181,0.09148l-0.10013,0.1471l-0.05563,0.0853l-0.07355,0.11435l-0.09457,0.15638l-0.12362,0.21447l-0.2324,0.40918l-0.22684,0.41227l-0.22066,0.41474l-0.21447,0.41536l-0.20644,0.41783l-0.19718,0.42092l-0.19408,0.42401l-0.18543,0.42339l-0.17987,0.4271l-0.17368,0.42649l-0.16441,0.43019l-0.16194,0.43267l-0.15638,0.43267l-0.1471,0.43267l-0.14401,0.43514l-0.13845,0.43576l-0.13227,0.43885l-0.12671,0.43823l-0.12053,0.44132l-0.11497,0.44194l-0.11188,0.44132l-0.1057,0.44441l-0.10322,0.44132l-0.09704,0.44441l-0.09148,0.4475l-0.08777,0.44441l-0.08282,0.4475l-0.07912,0.44441l-0.07664,0.4475l-0.07046,0.4475l-0.06799,0.4475l-0.06181,0.44688l-0.06181,0.45059l-0.05563,0.4475l-0.05315,0.4475l-0.05006,0.44688l-0.04697,0.4475l-0.04141,0.4475l-0.04141,0.44441l-0.03832,0.4475l-0.03524,0.44441l-0.03214,0.4475l-0.02967,0.44441l-0.02905,0.44132l-0.04697,0.88572l-0.04141,0.88016l-0.03524,0.87707l-0.02658,0.87151l-0.02349,0.86533l-0.01793,0.86224l-0.01484,0.85359l-0.01422,0.84493l-0.02411,1.66885l-0.00865,0.83566l-0.00556,0.8301v0.82083l0.00247,0.8097l0.00309,0.79734l0.00865,0.78312l0.01236,0.77385l0.01422,0.75655l0.01793,0.74171l0.01731,0.72687l0.02102,0.70957l0.02349,0.69165l0.04697,1.32457l0.05006,1.24237l0.01175,0.36777l0.00865,0.3795l0.01484,0.78559l0.01793,0.82144l0.00865,0.42092l0.01484,0.42958l0.0204,0.43267l0.02349,0.44194l0.02967,0.44688l0.03832,0.45368l0.04697,0.45615l0.02349,0.22931l0.02967,0.22993l0.06428,0.4648l0.03585,0.2324l0.04079,0.23549l0.04141,0.2324l0.04697,0.23549l0.04697,0.23858l0.05315,0.23549l0.05315,0.23858l0.05872,0.23549l0.1298,0.47655l0.07046,0.23858l0.07355,0.23796l0.07912,0.23858l0.08282,0.23858l0.08839,0.23858l0.09086,0.23796l0.09704,0.23858l0.10013,0.23549l0.10631,0.23858l0.11188,0.23796l0.11435,0.23549l0.12115,0.23858l0.12609,0.23549l0.13289,0.23549l0.13783,0.23549l0.14154,0.2324l0.15019,0.23549l0.15576,0.2324l0.15885,0.22993l0.16812,0.2324l0.17368,0.22931l0.17925,0.22993l0.18852,0.22622l0.19161,0.22684l0.27629,0.31213l0.28,0.30286l0.28494,0.29483l0.29174,0.28803l0.29112,0.28247l0.2973,0.27382l0.30039,0.27073l0.30286,0.26207l0.30904,0.25342l0.30904,0.24971l0.31523,0.24476l0.31523,0.23796l0.3177,0.23302l0.32079,0.22622l0.32079,0.22066l0.32388,0.21818l0.32079,0.20891l0.32944,0.20891l0.33562,0.20583l0.34119,0.20644l0.35046,0.20274l0.35293,0.20027l0.3653,0.19718l0.36777,0.19408l0.37703,0.19161l0.3826,0.18543l0.38816,0.18543l0.39434,0.17678l0.40361,0.17307l0.40918,0.16503l0.41474,0.16194l0.42092,0.15576l0.4271,0.14772l0.21756,0.07355l0.43576,0.13536l0.22066,0.06737l0.22375,0.06181l0.22375,0.0649l0.22375,0.05872l0.22931,0.05872l0.22684,0.05624l0.22931,0.05315l0.4648,0.09951l0.23549,0.04759l0.23549,0.04388l0.23858,0.04141l0.23858,0.03832l0.24106,0.03832l0.24167,0.03214l0.24415,0.03214l0.24415,0.02967l0.24724,0.02658l0.25033,0.02349l0.24724,0.0204l0.2528,0.01793l0.25033,0.01484l0.25651,0.01175l0.2528,0.00865l0.25898,0.00556l0.25589,0.00309h0.26516l0.24724,-0.00556l0.24724,-0.00618l0.24724,-0.01484l0.24724,-0.01422l0.24724,-0.02102l0.24724,-0.02658l0.24724,-0.02905l0.24724,-0.03524l0.24724,-0.03832l0.24724,-0.0445l0.25033,-0.05006l0.24724,-0.05253l0.24724,-0.05933l0.24724,-0.06181l0.24415,-0.07046l0.24724,-0.07355l0.24415,-0.07973l0.24724,-0.0853l0.24415,-0.09086l0.24476,-0.09704l0.24415,-0.10322l0.24106,-0.10879l0.24167,-0.11497l0.24106,-0.11744l0.24167,-0.12671l0.23858,-0.13227l0.24106,-0.14154l0.23549,-0.14401l0.23858,-0.15329l0.2324,-0.15576l0.23549,-0.16503l0.2324,-0.17368h0.00309l0.21447,-0.16503l0.20891,-0.17059l0.20644,-0.17059l0.19718,-0.17368l0.19099,-0.17678l0.18852,-0.17616l0.17987,-0.17987l0.17616,-0.17925l0.16812,-0.18296l0.16441,-0.18543l0.15947,-0.18543l0.15576,-0.18543l0.1471,-0.18543l0.14401,-0.1879l0.14154,-0.18543l0.13227,-0.18852l0.1298,-0.18852l0.12671,-0.18852l0.12053,-0.1879l0.11435,-0.18852l0.11188,-0.18543l0.10631,-0.18543l0.10322,-0.18852l0.09951,-0.18234l0.09457,-0.18543l0.09086,-0.18234l0.08592,-0.17987l0.0853,-0.17925l0.07912,-0.17678l0.07355,-0.17678l0.07355,-0.17368l0.06799,-0.17059l0.09704,-0.25898l0.09148,-0.25589l0.0853,-0.25033l0.07912,-0.25033l0.07108,-0.24724l0.06737,-0.24106l0.06181,-0.24167l0.05872,-0.23796l0.05315,-0.23858l0.04697,-0.2324l0.04697,-0.23302l0.04141,-0.22931l0.07973,-0.45306l0.06737,-0.44441l0.70647,0.16194l0.35911,0.07912l0.72378,0.15329l0.36839,0.07355l0.37086,0.07355l0.37333,0.06737l0.37703,0.07108l0.7652,0.12918l0.38878,0.06181l0.39434,0.05872l0.39743,0.05624l0.3999,0.05563l0.40361,0.05006l0.40856,0.05006l0.41536,0.0445l0.41783,0.04388l0.42401,0.03832l0.42958,0.03524l0.43267,0.03524l0.43576,0.02967l0.44441,0.02658l0.4475,0.02349l0.45306,0.01731l0.45924,0.01484l0.4648,0.01175l0.47098,0.00927l0.47407,0.00247h0.48273l0.48829,-0.00247l0.41783,-0.00927l0.41845,-0.01175l0.42092,-0.01731l0.41783,-0.02349l0.42092,-0.02658l0.41783,-0.02967l0.41783,-0.03524l0.42092,-0.04141l0.41783,-0.04388l0.41783,-0.05006l0.41845,-0.05315l0.41783,-0.05872l0.41783,-0.0649l0.41783,-0.06737l0.41536,-0.07108l0.41783,-0.07602l0.41474,-0.08282l0.41536,-0.08221l0.41474,-0.09148l0.41227,-0.09395l0.41474,-0.09704l0.41227,-0.10322l0.41165,-0.10879l0.40918,-0.11188l0.41227,-0.11497l0.40918,-0.12053l0.40918,-0.12362l0.40609,-0.1298l0.40609,-0.13227l0.40609,-0.13845l0.40361,-0.14092l0.40299,-0.1471l0.40299,-0.15019l0.40052,-0.15329l0.40052,-0.15885l0.39743,-0.16503l0.39681,-0.16441l0.39434,-0.17368l0.39496,-0.17368l0.39434,-0.17987l0.39125,-0.18234l0.38878,-0.18852l0.38816,-0.19099l0.38569,-0.19718l0.38569,-0.20027l0.3826,-0.20336l0.3826,-0.20891l0.3795,-0.212l0.3795,-0.21447l0.37394,-0.22066l0.37703,-0.22375l0.37086,-0.22993l0.37086,-0.2324l0.36777,-0.23549l0.36777,-0.23796l0.36221,-0.24476l0.36221,-0.24724l0.36159,-0.2528l0.35664,-0.25651l0.35602,-0.25898l0.35293,-0.26145l0.35046,-0.26825l0.34984,-0.27073l0.3449,-0.27629l0.34737,-0.28309l0.34675,-0.28494l0.3449,-0.29174l0.3381,-0.2973l0.33872,-0.30286l0.33562,-0.30657l0.33253,-0.31152l0.32944,-0.31523l0.32697,-0.32079l0.32079,-0.32388l0.32079,-0.32944l0.31461,-0.33253l0.31523,-0.33872l0.30904,-0.34428l0.30595,-0.34737l0.30039,-0.34984l0.29977,-0.35664l0.29483,-0.36159l0.28803,-0.3653l0.28556,-0.36777l0.28247,-0.37394l0.27691,-0.37641l0.27382,-0.3826l0.26764,-0.38569l0.26207,-0.38878l0.25898,-0.39434l0.25589,-0.39743l0.24724,-0.40299l0.24476,-0.40609l0.23796,-0.40918l0.2324,-0.41536l0.22993,-0.41783l0.22375,-0.42092l0.21447,-0.42339l0.212,-0.43019l0.20644,-0.43267l0.19965,-0.43823l0.1947,-0.43885l0.1879,-0.44441l0.17987,-0.4475l0.17678,-0.45306l0.1675,-0.45306l0.16503,-0.45924l0.15576,-0.46233l0.1471,-0.4648l0.14463,-0.46789l0.13536,-0.47407l0.12918,-0.47655l0.12053,-0.47716l0.11497,-0.48273l0.10879,-0.4852l0.10013,-0.48891l0.09148,-0.49447l0.0853,-0.49447l0.07912,-0.50004l0.06799,-0.50066l0.06181,-0.50622l0.05563,-0.50622l0.0445,-0.5124l0.03832,-0.51487l0.02905,-0.51487l0.02102,-0.52105l0.01484,-0.52415l0.00247,-0.52353v-0.09457l-0.00247,-0.1471l-0.00309,-0.09395v-0.03276l-0.04697,-1.27451l-0.05006,-1.22444l-0.05315,-1.17438l-0.05624,-1.12987l-0.05872,-1.08599l-0.06181,-1.0421l-0.06737,-1.00378l-0.07355,-0.96793l-0.04141,-0.46851l-0.03832,-0.46171l-0.04388,-0.45368l-0.04141,-0.44441l-0.04697,-0.43823l-0.04697,-0.42958l-0.04759,-0.42401l-0.05006,-0.41474l-0.05253,-0.40918l-0.05624,-0.40361l-0.05563,-0.39743l-0.05872,-0.38816l-0.06181,-0.38569l-0.06181,-0.3795l-0.0649,-0.37703l-0.06799,-0.37086l-0.07664,-0.3795l-0.07602,-0.3826l-0.08282,-0.3795l-0.08839,-0.37703l-0.09086,-0.37641l-0.09704,-0.37394l-0.10322,-0.37086l-0.10879,-0.37086l-0.11188,-0.36777l-0.12053,-0.36839l-0.12362,-0.36159l-0.1298,-0.36221l-0.13845,-0.35602l-0.14092,-0.35664l-0.15019,-0.34984l-0.15329,-0.35046l-0.16194,-0.34428l-0.17059,-0.34428l-0.17368,-0.33872l-0.18234,-0.33253l-0.19161,-0.33253l-0.19718,-0.32697l-0.20583,-0.32326l-0.10322,-0.15885l-0.10879,-0.15947l-0.10879,-0.15885l-0.11188,-0.15576l-0.11188,-0.15638l-0.11497,-0.15267l-0.11744,-0.15329l-0.12053,-0.15267l-0.12115,-0.15019l-0.12362,-0.15019l-0.12362,-0.1471l-0.12918,-0.1471l-0.1298,-0.1471l-0.13227,-0.14463l-0.13227,-0.14092l-0.13536,-0.14463l-0.13845,-0.13783l-0.14154,-0.14154l-0.27073,-0.25589l-0.26455,-0.24724l-0.26207,-0.22993l-0.25589,-0.22066l-0.25651,-0.20891l-0.24971,-0.20027l-0.24476,-0.18852l-0.24415,-0.17925l-0.23858,-0.17059l-0.23549,-0.16503l-0.2324,-0.15576l-0.22622,-0.15019l-0.22684,-0.14401l-0.22066,-0.14154l-0.43267,-0.27073l0.01484,-0.0445l0.01731,-0.03771l0.03276,-0.07108l0.03214,-0.07046l0.01484,-0.03832l0.01484,-0.04697l0.11435,-0.40299l0.10879,-0.40918l0.10631,-0.40918l0.10013,-0.41227l0.10013,-0.41474l0.09704,-0.41845l0.09395,-0.41783l0.08839,-0.41783l0.08839,-0.42092l0.0853,-0.42401l0.08221,-0.42339l0.07973,-0.4271l0.07664,-0.42958l0.07664,-0.4271l0.07046,-0.43267l0.07046,-0.42958l0.06799,-0.43267l0.06737,-0.43576l0.12671,-0.87089l0.11744,-0.87398l0.11497,-0.87707l0.10631,-0.88016l0.10261,-0.88016l0.09704,-0.88325l0.09457,-0.88263l0.09086,-0.88572l0.08839,-0.88943l0.08282,-0.88263l0.07912,-0.88016l0.07664,-0.87398l0.07355,-0.87151l0.13536,-1.71273l0.1298,-1.66885l0.12053,-1.61878l0.22066,-3.03174l0.05315,-0.69474l0.05563,-0.6799l0.05624,-0.66507l0.05872,-0.64158l0.05872,-0.61809l0.05624,-0.58842l0.05563,-0.55381l0.05624,-0.51487l0.04944,-0.47655l0.05006,-0.4271l0.08592,-0.69165l0.02349,-0.15576l0.03214,-0.17121l0.05563,-0.2732l0.01236,-0.05315l-0.01236,0.03524l-0.11126,0.45059l0.06737,-0.28309l0.0649,-0.27938l0.06181,-0.27938l0.05563,-0.28l0.05315,-0.27938l0.04697,-0.27938l0.0445,-0.28l0.04079,-0.27938l0.03832,-0.27691l0.03276,-0.27629l0.02596,-0.27691l0.02658,-0.27691l0.02102,-0.27629l0.01731,-0.27382l0.01175,-0.27691l0.01175,-0.27382l0.00618,-0.27382l0.00309,-0.27073l-0.00309,-0.2732l-0.00309,-0.27135l-0.00865,-0.26764l-0.01175,-0.27073l-0.01484,-0.26764l-0.01793,-0.26825l-0.02349,-0.26764l-0.02349,-0.26516l-0.02905,-0.26455l-0.03276,-0.26516l-0.03524,-0.26207l-0.03832,-0.26145l-0.04141,-0.26207l-0.04388,-0.25898l-0.04697,-0.25898l-0.05315,-0.25651l-0.05315,-0.25589l-0.05563,-0.25589l-0.06181,-0.25342l-0.06181,-0.2528l-0.0649,-0.25033l-0.07046,-0.25033l-0.07046,-0.24724l-0.07664,-0.24724l-0.07664,-0.24724l-0.07973,-0.24415l-0.08221,-0.24106l-0.0853,-0.24167l-0.08839,-0.24106l-0.09148,-0.23858l-0.09395,-0.23549l-0.09395,-0.23549l-0.10013,-0.2324l-0.10013,-0.2324l-0.10322,-0.22993l-0.1057,-0.22622l-0.10879,-0.22684l-0.11188,-0.22684l-0.11188,-0.22375l-0.11497,-0.22066l-0.11744,-0.21756l-0.12115,-0.21818l-0.12053,-0.21447l-0.12362,-0.21509l-0.12671,-0.212l-0.12918,-0.20891l-0.11806,-0.18852l-0.12053,-0.18543l-0.12362,-0.1879l-0.12671,-0.18543l-0.13227,-0.18543l-0.13227,-0.18543l-0.13536,-0.18296l-0.13845,-0.18234l-0.14401,-0.18234l-0.14463,-0.17925l-0.1471,-0.18296l-0.15329,-0.17616l-0.15267,-0.17987l-0.15638,-0.17678l-0.15885,-0.17368l-0.16194,-0.17368l-0.16441,-0.17307l-0.16812,-0.17121l-0.17368,-0.1675l-0.17368,-0.16812l-0.17368,-0.1675l-0.17925,-0.16503l-0.18234,-0.16194l-0.18543,-0.16132l-0.18543,-0.15638l-0.19161,-0.15885l-0.19099,-0.15329l-0.19718,-0.15267l-0.19718,-0.15019l-0.20027,-0.15019l-0.20336,-0.14401l-0.20583,-0.14463l-0.20891,-0.14092l-0.212,-0.13845l-0.212,-0.13536l-0.21756,-0.13536l-0.21818,-0.1298l-0.22066,-0.12918l-0.22375,-0.12362l-0.22622,-0.12362l-0.22993,-0.11806l-0.2324,-0.11744l-0.2324,-0.11497l-0.23549,-0.10879l-0.23858,-0.1057l-0.24106,-0.10631l-0.24476,-0.10013l-0.24415,-0.09704l-0.25033,-0.09395l-0.24971,-0.09148l-0.25033,-0.0853l-0.25589,-0.0853l-0.25898,-0.07973l-0.25898,-0.07355l-0.26207,-0.07355l-0.26207,-0.06737l-0.26764,-0.0649l-0.26825,-0.05872l-0.27073,-0.05624l-0.27382,-0.05253l-0.27382,-0.04759l-0.27938,-0.04388l-0.27938,-0.04141l-0.28,-0.03524l-0.17616,-0.05315l-0.17678,-0.04388l-0.17678,-0.04141l-0.17925,-0.03524l-0.17987,-0.02658l-0.17925,-0.02349l-0.18296,-0.01484l-0.18234,-0.00865l-0.01484,-0.00309h-0.00247h0.00247l-0.14092,-0.00247zM291.85174,179.99972l0.1947,-0.40299l0.02658,-0.06737zM265.35662,92.34872l0.36777,0.05872l0.60635,0.13845l0.8505,0.22684l-0.89747,-0.27073l-0.32079,-0.05624l-0.23858,-0.03832l-0.21509,-0.05006l-0.76211,-0.09395z" fill="#ffffff" fill-rule="evenodd"/><path d="M251.89395,142.54335c0.03214,-0.01175 0.10322,-0.04079 0.24415,-0.12053c0.58842,-0.34119 0.90674,-0.88881 1.1274,-1.95997c0.21756,-1.07177 0.21756,-2.52861 0.17678,-3.99411c-0.0445,-1.46858 -0.14463,-2.91987 0.12609,-4.33283c0.13536,-0.70339 0.37086,-1.45066 0.95989,-2.11882c0.58842,-0.66816 1.56872,-1.09217 2.47793,-1.11257c2.23997,-0.05315 4.45335,0.28803 5.82798,2.04526c1.37154,1.75415 1.35363,4.15296 0.59152,7.17914c-0.25342,0.99142 -0.49138,3.81425 -0.67681,7.15194c-0.18543,3.3377 -0.36777,7.30523 -0.69783,11.14605c-0.32944,3.84144 -0.79486,7.54073 -1.63052,10.47542c-0.41783,1.46858 -0.91849,2.75175 -1.6602,3.82352c-0.74418,1.07115 -1.90125,2.01313 -3.35191,2.11572c-1.93401,0.13845 -3.72648,-0.57977 -4.70368,-1.87776c-0.97411,-1.29799 -1.21826,-2.80181 -1.35115,-4.30872c-0.26145,-3.01999 0,-6.40776 -0.66198,-8.70645c-0.83875,-2.92543 -1.75106,-7.00483 -3.32286,-10.21026c-0.78621,-1.60086 -1.72509,-2.9551 -2.79068,-3.847c-1.0625,-0.89438 -2.19546,-1.37711 -3.76727,-1.36536c-3.70855,0.03214 -5.40954,0.83257 -6.59566,2.09286c-1.18612,1.25658 -1.94884,3.33461 -2.81665,6.13642c-1.74549,5.63947 -3.2524,10.71648 -1.71891,15.88497c0.79734,2.68746 1.55944,3.95888 3.46997,5.10667c1.90991,1.1478 5.24513,2.06937 10.82217,3.0169c5.83108,0.99204 12.32105,2.99899 17.50436,6.78727c5.1827,3.79076 9.00931,9.55075 9.00931,17.38013c0,7.73233 -3.15845,13.5393 -7.92641,17.22127c-4.76796,3.68197 -11.00513,5.31559 -17.29792,5.40089c-10.25415,0.13845 -17.03276,-3.34944 -20.81487,-5.72786c-0.47098,2.19608 -0.57977,5.08318 -0.50622,8.03273c0.04697,1.9303 0.0853,3.74379 -0.34428,5.38915c-0.21509,0.82392 -0.56246,1.65401 -1.24793,2.33701c-0.68918,0.68238 -1.72757,1.07981 -2.73444,1.09155c-2.97859,0.02349 -5.14809,-1.49207 -6.09253,-3.29628c-0.94507,-1.80112 -0.96237,-3.66714 -0.96237,-4.84769c0,-0.96855 -0.12115,-8.69718 -0.21818,-16.21441c-0.05006,-3.75861 -0.09395,-7.49374 -0.11188,-10.38147c-0.00865,-1.44201 -0.01175,-2.66954 -0.00556,-3.59358c0.00309,-0.92096 -0.03524,-1.26276 0.05872,-1.92474c0.25342,-1.75106 1.32148,-2.72826 2.6782,-3.77654c1.35733,-1.04766 3.14362,-1.9303 5.21299,-1.9303c1.43892,0 2.63678,0.86224 3.37602,1.81843c0.73862,0.95989 1.21269,2.07803 1.60086,3.26414c0.77695,2.36976 1.16263,5.05661 1.42161,6.9523c0.15329,1.11874 1.58974,4.24691 4.29141,6.73411c2.70168,2.49029 6.55734,4.53865 11.72026,4.53865c5.49792,0 10.04523,-0.7652 12.86805,-2.35184c2.82283,-1.58603 4.13813,-3.64922 3.82908,-7.61675c-0.31213,-3.9799 -2.28385,-7.37322 -5.76309,-10.08417c-3.47862,-2.71033 -8.49135,-4.66474 -14.6426,-5.41572c-6.6519,-0.81217 -12.30003,-2.83395 -16.02342,-7.08704c-3.7203,-4.25618 -5.23586,-10.51684 -4.23517,-19.02549l0.00247,-0.01175v-0.00927c1.18056,-9.0501 3.50891,-15.73167 7.14947,-20.23757c3.63809,-4.50341 8.68852,-6.64634 14.42194,-6.45474c6.01341,0.19965 9.25964,4.18819 11.17572,7.21685c0.95989,1.51557 1.73066,2.83705 2.21957,3.34635c0.17925,0.18543 0.28247,0.24415 0.30904,0.25589l-0.00618,0.00309h0.00309c0.01175,0.00309 0.01175,0.00309 0.00309,-0.00309zM251.88777,142.54644z" fill="#ffffff" fill-rule="evenodd"/></g></g></g></svg>