<svg version="1.1" xmlns="http://www.w3.org/2000/svg" xmlns:xlink="http://www.w3.org/1999/xlink" width="640" height="685.04285" viewBox="0,0,640,685.04285"><g transform="translate(80,249.04285)"><g data-paper-data="{&quot;isPaintingLayer&quot;:true}" fill="#484844" fill-rule="nonzero" stroke="none" stroke-width="1" stroke-linecap="butt" stroke-linejoin="miter" stroke-miterlimit="10" stroke-dasharray="" stroke-dashoffset="0" style="mix-blend-mode: normal"><path d="M64,-75.99999c44.18278,0 80,35.81722 80,80c0,44.18278 -35.81722,80 -80,80c-44.18278,0 -80,-35.81722 -80,-80c0,-44.18278 35.81722,-80 80,-80zM432,-75.99999c44.18278,0 80,35.81722 80,80c0,44.18278 -35.81722,80 -80,80c-44.18278,0 -80,-35.81722 -80,-80c0,-44.18278 35.81722,-80 80,-80zM-80,222.70001c0,-58.9 47.8,-106.7 106.7,-106.7h42.7c15.9,0 31,3.5 44.6,9.7c-1.3,7.2 -1.9,14.7 -1.9,22.3c0,38.2 16.8,72.5 43.3,96c-0.2,0 -0.4,0 -0.7,0h-213.4c-11.7,0 -21.3,-9.6 -21.3,-21.3zM325.3,244.00001c-0.2,0 -0.4,0 -0.7,0c26.6,-23.5 43.3,-57.8 43.3,-96c0,-7.6 -0.7,-15 -1.9,-22.3c13.6,-6.3 28.7,-9.7 44.6,-9.7h42.7c58.9,0 106.7,47.8 106.7,106.7c0,11.8 -9.6,21.3 -21.3,21.3zM144,148c0,-53.01934 42.98066,-96 96,-96c53.01934,0 96,42.98066 96,96c0,53.01934 -42.98066,96 -96,96c-53.01934,0 -96,-42.98066 -96,-96zM48,409.30001c0,-73.6 59.7,-133.3 133.3,-133.3h117.4c73.6,0 133.3,59.7 133.3,133.3c0,14.7 -11.9,26.7 -26.7,26.7h-330.6c-14.7,0 -26.7,-11.9 -26.7,-26.7z"/><path d="M161.71428,-170.75713c0,-43.23601 35.04971,-78.28571 78.28572,-78.28571c43.236,0 78.28571,35.04971 78.28571,78.28571c0,43.23601 -35.04971,78.28572 -78.28571,78.28572c-43.23601,0 -78.28572,-35.04971 -78.28572,-78.28572zM267.95045,-63.11428c22.37283,0 43.16827,6.73131 60.47229,18.2799c6.69176,6.48129 -2.76045,18.87862 -2.5936,39.61037c0.26797,33.2957 18.00614,62.32402 18.00614,62.32402c0,0 -25.77874,-42 -106.23526,-42c-71.33451,0 -93.43528,45 -93.43528,45c0,0 23.83527,-37.13438 20.83527,-63.16473c-3.44795,-24.42823 -10.93943,-34.83497 -4.1743,-42.64207c15.9699,-9.16668 31.48282,-17.40748 51.22385,-17.40748z"/></g></g></svg>